<mxfile host="app.diagrams.net" modified="2024-05-15T20:25:42.256Z" agent="Mozilla/5.0 (Windows NT 10.0; Win64; x64) AppleWebKit/537.36 (KHTML, like Gecko) Chrome/124.0.0.0 Safari/537.36" etag="1JUlM4G9X-Ng851ZdDxT" version="24.4.2" type="device">
  <diagram name="Page-1" id="a7904f86-f2b4-8e86-fa97-74104820619b">
    <mxGraphModel dx="993" dy="525" grid="1" gridSize="10" guides="1" tooltips="1" connect="1" arrows="1" fold="1" page="1" pageScale="1" pageWidth="1100" pageHeight="850" background="none" math="0" shadow="0">
      <root>
        <mxCell id="0" />
        <mxCell id="1" parent="0" />
        <mxCell id="yO5ZmVBm04dt71dqiS3L-5" value="Rifle model table" style="swimlane;fontStyle=1;align=center;verticalAlign=top;childLayout=stackLayout;horizontal=1;startSize=26;horizontalStack=0;resizeParent=1;resizeParentMax=0;resizeLast=0;collapsible=1;marginBottom=0;whiteSpace=wrap;html=1;" parent="1" vertex="1">
          <mxGeometry x="460" y="250" width="200" height="130" as="geometry" />
        </mxCell>
        <mxCell id="yO5ZmVBm04dt71dqiS3L-6" value="PK model_ID : int" style="text;strokeColor=none;fillColor=none;align=left;verticalAlign=top;spacingLeft=4;spacingRight=4;overflow=hidden;rotatable=0;points=[[0,0.5],[1,0.5]];portConstraint=eastwest;whiteSpace=wrap;html=1;" parent="yO5ZmVBm04dt71dqiS3L-5" vertex="1">
          <mxGeometry y="26" width="200" height="26" as="geometry" />
        </mxCell>
        <mxCell id="yO5ZmVBm04dt71dqiS3L-7" value="" style="line;strokeWidth=1;fillColor=none;align=left;verticalAlign=middle;spacingTop=-1;spacingLeft=3;spacingRight=3;rotatable=0;labelPosition=right;points=[];portConstraint=eastwest;strokeColor=inherit;" parent="yO5ZmVBm04dt71dqiS3L-5" vertex="1">
          <mxGeometry y="52" width="200" height="8" as="geometry" />
        </mxCell>
        <mxCell id="yO5ZmVBm04dt71dqiS3L-8" value="&lt;div&gt;FK caliber_ID : int&lt;br&gt;&lt;/div&gt;&lt;div&gt;FK price_ID : int&lt;/div&gt;model_classification_name : text&lt;div&gt;handguard_type : text&lt;/div&gt;" style="text;strokeColor=none;fillColor=none;align=left;verticalAlign=top;spacingLeft=4;spacingRight=4;overflow=hidden;rotatable=0;points=[[0,0.5],[1,0.5]];portConstraint=eastwest;whiteSpace=wrap;html=1;" parent="yO5ZmVBm04dt71dqiS3L-5" vertex="1">
          <mxGeometry y="60" width="200" height="70" as="geometry" />
        </mxCell>
        <mxCell id="yO5ZmVBm04dt71dqiS3L-10" value="Caliber table" style="swimlane;fontStyle=1;align=center;verticalAlign=top;childLayout=stackLayout;horizontal=1;startSize=26;horizontalStack=0;resizeParent=1;resizeParentMax=0;resizeLast=0;collapsible=1;marginBottom=0;whiteSpace=wrap;html=1;" parent="1" vertex="1">
          <mxGeometry x="240" y="50" width="160" height="90" as="geometry" />
        </mxCell>
        <mxCell id="yO5ZmVBm04dt71dqiS3L-11" value="PK caliber_ID : int" style="text;strokeColor=none;fillColor=none;align=left;verticalAlign=top;spacingLeft=4;spacingRight=4;overflow=hidden;rotatable=0;points=[[0,0.5],[1,0.5]];portConstraint=eastwest;whiteSpace=wrap;html=1;" parent="yO5ZmVBm04dt71dqiS3L-10" vertex="1">
          <mxGeometry y="26" width="160" height="26" as="geometry" />
        </mxCell>
        <mxCell id="yO5ZmVBm04dt71dqiS3L-12" value="" style="line;strokeWidth=1;fillColor=none;align=left;verticalAlign=middle;spacingTop=-1;spacingLeft=3;spacingRight=3;rotatable=0;labelPosition=right;points=[];portConstraint=eastwest;strokeColor=inherit;" parent="yO5ZmVBm04dt71dqiS3L-10" vertex="1">
          <mxGeometry y="52" width="160" height="8" as="geometry" />
        </mxCell>
        <mxCell id="yO5ZmVBm04dt71dqiS3L-13" value="metrics : int" style="text;strokeColor=none;fillColor=none;align=left;verticalAlign=top;spacingLeft=4;spacingRight=4;overflow=hidden;rotatable=0;points=[[0,0.5],[1,0.5]];portConstraint=eastwest;whiteSpace=wrap;html=1;" parent="yO5ZmVBm04dt71dqiS3L-10" vertex="1">
          <mxGeometry y="60" width="160" height="30" as="geometry" />
        </mxCell>
        <mxCell id="yO5ZmVBm04dt71dqiS3L-14" value="" style="edgeStyle=entityRelationEdgeStyle;fontSize=12;html=1;endArrow=ERoneToMany;startArrow=ERmandOne;rounded=0;exitX=1;exitY=0.5;exitDx=0;exitDy=0;" parent="1" source="yO5ZmVBm04dt71dqiS3L-11" target="yO5ZmVBm04dt71dqiS3L-6" edge="1">
          <mxGeometry width="100" height="100" relative="1" as="geometry">
            <mxPoint x="660" y="360" as="sourcePoint" />
            <mxPoint x="760" y="260" as="targetPoint" />
          </mxGeometry>
        </mxCell>
        <mxCell id="yO5ZmVBm04dt71dqiS3L-15" value="Muzzle break table" style="swimlane;fontStyle=1;align=center;verticalAlign=top;childLayout=stackLayout;horizontal=1;startSize=26;horizontalStack=0;resizeParent=1;resizeParentMax=0;resizeLast=0;collapsible=1;marginBottom=0;whiteSpace=wrap;html=1;" parent="1" vertex="1">
          <mxGeometry x="730" y="160" width="160" height="130" as="geometry" />
        </mxCell>
        <mxCell id="yO5ZmVBm04dt71dqiS3L-16" value="PK mb_id : int" style="text;strokeColor=none;fillColor=none;align=left;verticalAlign=top;spacingLeft=4;spacingRight=4;overflow=hidden;rotatable=0;points=[[0,0.5],[1,0.5]];portConstraint=eastwest;whiteSpace=wrap;html=1;" parent="yO5ZmVBm04dt71dqiS3L-15" vertex="1">
          <mxGeometry y="26" width="160" height="26" as="geometry" />
        </mxCell>
        <mxCell id="yO5ZmVBm04dt71dqiS3L-17" value="" style="line;strokeWidth=1;fillColor=none;align=left;verticalAlign=middle;spacingTop=-1;spacingLeft=3;spacingRight=3;rotatable=0;labelPosition=right;points=[];portConstraint=eastwest;strokeColor=inherit;" parent="yO5ZmVBm04dt71dqiS3L-15" vertex="1">
          <mxGeometry y="52" width="160" height="8" as="geometry" />
        </mxCell>
        <mxCell id="yO5ZmVBm04dt71dqiS3L-18" value="&lt;div&gt;FK caliber_ID : int&lt;br&gt;&lt;/div&gt;&lt;div&gt;FK price_ID : int&lt;/div&gt;mb_type : int&lt;div&gt;mb_compatible_id : int&lt;/div&gt;" style="text;strokeColor=none;fillColor=none;align=left;verticalAlign=top;spacingLeft=4;spacingRight=4;overflow=hidden;rotatable=0;points=[[0,0.5],[1,0.5]];portConstraint=eastwest;whiteSpace=wrap;html=1;" parent="yO5ZmVBm04dt71dqiS3L-15" vertex="1">
          <mxGeometry y="60" width="160" height="70" as="geometry" />
        </mxCell>
        <mxCell id="yO5ZmVBm04dt71dqiS3L-41" value="" style="edgeStyle=entityRelationEdgeStyle;fontSize=12;html=1;endArrow=ERmandOne;startArrow=ERmandOne;rounded=0;entryX=1;entryY=0.5;entryDx=0;entryDy=0;exitX=1;exitY=0.843;exitDx=0;exitDy=0;exitPerimeter=0;" parent="yO5ZmVBm04dt71dqiS3L-15" source="yO5ZmVBm04dt71dqiS3L-18" target="yO5ZmVBm04dt71dqiS3L-16" edge="1">
          <mxGeometry width="100" height="100" relative="1" as="geometry">
            <mxPoint x="170" y="100" as="sourcePoint" />
            <mxPoint x="570" y="50" as="targetPoint" />
            <Array as="points">
              <mxPoint x="170" y="120" />
              <mxPoint x="280" y="60" />
            </Array>
          </mxGeometry>
        </mxCell>
        <mxCell id="yO5ZmVBm04dt71dqiS3L-20" value="Mag table" style="swimlane;fontStyle=1;align=center;verticalAlign=top;childLayout=stackLayout;horizontal=1;startSize=26;horizontalStack=0;resizeParent=1;resizeParentMax=0;resizeLast=0;collapsible=1;marginBottom=0;whiteSpace=wrap;html=1;" parent="1" vertex="1">
          <mxGeometry x="120" y="190" width="160" height="120" as="geometry" />
        </mxCell>
        <mxCell id="yO5ZmVBm04dt71dqiS3L-21" value="PK mag_ID : int" style="text;strokeColor=none;fillColor=none;align=left;verticalAlign=top;spacingLeft=4;spacingRight=4;overflow=hidden;rotatable=0;points=[[0,0.5],[1,0.5]];portConstraint=eastwest;whiteSpace=wrap;html=1;" parent="yO5ZmVBm04dt71dqiS3L-20" vertex="1">
          <mxGeometry y="26" width="160" height="26" as="geometry" />
        </mxCell>
        <mxCell id="yO5ZmVBm04dt71dqiS3L-22" value="" style="line;strokeWidth=1;fillColor=none;align=left;verticalAlign=middle;spacingTop=-1;spacingLeft=3;spacingRight=3;rotatable=0;labelPosition=right;points=[];portConstraint=eastwest;strokeColor=inherit;" parent="yO5ZmVBm04dt71dqiS3L-20" vertex="1">
          <mxGeometry y="52" width="160" height="8" as="geometry" />
        </mxCell>
        <mxCell id="yO5ZmVBm04dt71dqiS3L-23" value="&lt;div&gt;FK caliber_ID : int&lt;/div&gt;&lt;div&gt;FK price_ID : int&lt;/div&gt;capacity : int" style="text;strokeColor=none;fillColor=none;align=left;verticalAlign=top;spacingLeft=4;spacingRight=4;overflow=hidden;rotatable=0;points=[[0,0.5],[1,0.5]];portConstraint=eastwest;whiteSpace=wrap;html=1;" parent="yO5ZmVBm04dt71dqiS3L-20" vertex="1">
          <mxGeometry y="60" width="160" height="60" as="geometry" />
        </mxCell>
        <mxCell id="yO5ZmVBm04dt71dqiS3L-24" value="" style="edgeStyle=entityRelationEdgeStyle;fontSize=12;html=1;endArrow=ERoneToMany;startArrow=ERmandOne;rounded=0;entryX=0.994;entryY=0.183;entryDx=0;entryDy=0;exitX=-0.019;exitY=0.186;exitDx=0;exitDy=0;exitPerimeter=0;entryPerimeter=0;" parent="1" source="yO5ZmVBm04dt71dqiS3L-18" target="yO5ZmVBm04dt71dqiS3L-8" edge="1">
          <mxGeometry width="100" height="100" relative="1" as="geometry">
            <mxPoint x="660" y="460" as="sourcePoint" />
            <mxPoint x="760" y="360" as="targetPoint" />
          </mxGeometry>
        </mxCell>
        <mxCell id="yO5ZmVBm04dt71dqiS3L-25" value="" style="edgeStyle=entityRelationEdgeStyle;fontSize=12;html=1;endArrow=ERoneToMany;startArrow=ERmandOne;rounded=0;entryX=-0.012;entryY=0.171;entryDx=0;entryDy=0;entryPerimeter=0;exitX=1;exitY=0.15;exitDx=0;exitDy=0;exitPerimeter=0;" parent="1" source="yO5ZmVBm04dt71dqiS3L-23" target="yO5ZmVBm04dt71dqiS3L-8" edge="1">
          <mxGeometry width="100" height="100" relative="1" as="geometry">
            <mxPoint x="330" y="324" as="sourcePoint" />
            <mxPoint x="620" y="320" as="targetPoint" />
            <Array as="points">
              <mxPoint x="640" y="330" />
              <mxPoint x="420" y="410" />
              <mxPoint x="740" y="620" />
              <mxPoint x="450" y="450" />
              <mxPoint x="450" y="380" />
            </Array>
          </mxGeometry>
        </mxCell>
        <mxCell id="yO5ZmVBm04dt71dqiS3L-27" value="Handguard table" style="swimlane;fontStyle=1;align=center;verticalAlign=top;childLayout=stackLayout;horizontal=1;startSize=26;horizontalStack=0;resizeParent=1;resizeParentMax=0;resizeLast=0;collapsible=1;marginBottom=0;whiteSpace=wrap;html=1;" parent="1" vertex="1">
          <mxGeometry x="150" y="380" width="160" height="130" as="geometry" />
        </mxCell>
        <mxCell id="yO5ZmVBm04dt71dqiS3L-28" value="PK handguard_ID : int" style="text;strokeColor=none;fillColor=none;align=left;verticalAlign=top;spacingLeft=4;spacingRight=4;overflow=hidden;rotatable=0;points=[[0,0.5],[1,0.5]];portConstraint=eastwest;whiteSpace=wrap;html=1;" parent="yO5ZmVBm04dt71dqiS3L-27" vertex="1">
          <mxGeometry y="26" width="160" height="26" as="geometry" />
        </mxCell>
        <mxCell id="yO5ZmVBm04dt71dqiS3L-29" value="" style="line;strokeWidth=1;fillColor=none;align=left;verticalAlign=middle;spacingTop=-1;spacingLeft=3;spacingRight=3;rotatable=0;labelPosition=right;points=[];portConstraint=eastwest;strokeColor=inherit;" parent="yO5ZmVBm04dt71dqiS3L-27" vertex="1">
          <mxGeometry y="52" width="160" height="8" as="geometry" />
        </mxCell>
        <mxCell id="yO5ZmVBm04dt71dqiS3L-30" value="FK handguard_type : text&lt;div&gt;FK price_ID : int&lt;br&gt;&lt;div&gt;&lt;/div&gt;&lt;div&gt;mounts_count : int&lt;/div&gt;&lt;div&gt;mounts_type : text&lt;/div&gt;&lt;/div&gt;" style="text;strokeColor=none;fillColor=none;align=left;verticalAlign=top;spacingLeft=4;spacingRight=4;overflow=hidden;rotatable=0;points=[[0,0.5],[1,0.5]];portConstraint=eastwest;whiteSpace=wrap;html=1;" parent="yO5ZmVBm04dt71dqiS3L-27" vertex="1">
          <mxGeometry y="60" width="160" height="70" as="geometry" />
        </mxCell>
        <mxCell id="yO5ZmVBm04dt71dqiS3L-32" value="" style="edgeStyle=entityRelationEdgeStyle;fontSize=12;html=1;endArrow=ERoneToMany;startArrow=ERmandOne;rounded=0;exitX=1.006;exitY=0.143;exitDx=0;exitDy=0;exitPerimeter=0;entryX=-0.012;entryY=0.8;entryDx=0;entryDy=0;entryPerimeter=0;" parent="1" source="yO5ZmVBm04dt71dqiS3L-30" target="yO5ZmVBm04dt71dqiS3L-8" edge="1">
          <mxGeometry width="100" height="100" relative="1" as="geometry">
            <mxPoint x="401" y="448" as="sourcePoint" />
            <mxPoint x="469" y="334" as="targetPoint" />
            <Array as="points">
              <mxPoint x="650" y="340" />
              <mxPoint x="430" y="420" />
              <mxPoint x="750" y="630" />
              <mxPoint x="460" y="460" />
              <mxPoint x="460" y="390" />
            </Array>
          </mxGeometry>
        </mxCell>
        <mxCell id="yO5ZmVBm04dt71dqiS3L-33" value="Tactical Modification table" style="swimlane;fontStyle=1;align=center;verticalAlign=top;childLayout=stackLayout;horizontal=1;startSize=26;horizontalStack=0;resizeParent=1;resizeParentMax=0;resizeLast=0;collapsible=1;marginBottom=0;whiteSpace=wrap;html=1;" parent="1" vertex="1">
          <mxGeometry x="430" y="480" width="160" height="110" as="geometry">
            <mxRectangle x="430" y="480" width="180" height="30" as="alternateBounds" />
          </mxGeometry>
        </mxCell>
        <mxCell id="yO5ZmVBm04dt71dqiS3L-34" value="PK mod_ID : int" style="text;strokeColor=none;fillColor=none;align=left;verticalAlign=top;spacingLeft=4;spacingRight=4;overflow=hidden;rotatable=0;points=[[0,0.5],[1,0.5]];portConstraint=eastwest;whiteSpace=wrap;html=1;" parent="yO5ZmVBm04dt71dqiS3L-33" vertex="1">
          <mxGeometry y="26" width="160" height="26" as="geometry" />
        </mxCell>
        <mxCell id="yO5ZmVBm04dt71dqiS3L-35" value="" style="line;strokeWidth=1;fillColor=none;align=left;verticalAlign=middle;spacingTop=-1;spacingLeft=3;spacingRight=3;rotatable=0;labelPosition=right;points=[];portConstraint=eastwest;strokeColor=inherit;" parent="yO5ZmVBm04dt71dqiS3L-33" vertex="1">
          <mxGeometry y="52" width="160" height="8" as="geometry" />
        </mxCell>
        <mxCell id="yO5ZmVBm04dt71dqiS3L-36" value="&lt;div&gt;FK price_id : int&lt;/div&gt;mount_type : text&lt;div&gt;mod_type : text&lt;/div&gt;" style="text;strokeColor=none;fillColor=none;align=left;verticalAlign=top;spacingLeft=4;spacingRight=4;overflow=hidden;rotatable=0;points=[[0,0.5],[1,0.5]];portConstraint=eastwest;whiteSpace=wrap;html=1;" parent="yO5ZmVBm04dt71dqiS3L-33" vertex="1">
          <mxGeometry y="60" width="160" height="50" as="geometry" />
        </mxCell>
        <mxCell id="yO5ZmVBm04dt71dqiS3L-37" value="" style="edgeStyle=entityRelationEdgeStyle;fontSize=12;html=1;endArrow=ERoneToMany;startArrow=ERmandOne;rounded=0;exitX=1.013;exitY=0.814;exitDx=0;exitDy=0;exitPerimeter=0;entryX=0;entryY=0.5;entryDx=0;entryDy=0;" parent="1" source="yO5ZmVBm04dt71dqiS3L-30" target="yO5ZmVBm04dt71dqiS3L-36" edge="1">
          <mxGeometry width="100" height="100" relative="1" as="geometry">
            <mxPoint x="319" y="463" as="sourcePoint" />
            <mxPoint x="465" y="363" as="targetPoint" />
            <Array as="points">
              <mxPoint x="660" y="350" />
              <mxPoint x="440" y="430" />
              <mxPoint x="760" y="640" />
              <mxPoint x="470" y="470" />
              <mxPoint x="470" y="400" />
            </Array>
          </mxGeometry>
        </mxCell>
        <mxCell id="yO5ZmVBm04dt71dqiS3L-43" value="Price Table" style="swimlane;fontStyle=1;align=center;verticalAlign=top;childLayout=stackLayout;horizontal=1;startSize=26;horizontalStack=0;resizeParent=1;resizeParentMax=0;resizeLast=0;collapsible=1;marginBottom=0;whiteSpace=wrap;html=1;" parent="1" vertex="1">
          <mxGeometry x="730" y="410" width="160" height="120" as="geometry" />
        </mxCell>
        <mxCell id="yO5ZmVBm04dt71dqiS3L-44" value="PK price_id : int" style="text;strokeColor=none;fillColor=none;align=left;verticalAlign=top;spacingLeft=4;spacingRight=4;overflow=hidden;rotatable=0;points=[[0,0.5],[1,0.5]];portConstraint=eastwest;whiteSpace=wrap;html=1;" parent="yO5ZmVBm04dt71dqiS3L-43" vertex="1">
          <mxGeometry y="26" width="160" height="26" as="geometry" />
        </mxCell>
        <mxCell id="yO5ZmVBm04dt71dqiS3L-45" value="" style="line;strokeWidth=1;fillColor=none;align=left;verticalAlign=middle;spacingTop=-1;spacingLeft=3;spacingRight=3;rotatable=0;labelPosition=right;points=[];portConstraint=eastwest;strokeColor=inherit;" parent="yO5ZmVBm04dt71dqiS3L-43" vertex="1">
          <mxGeometry y="52" width="160" height="8" as="geometry" />
        </mxCell>
        <mxCell id="yO5ZmVBm04dt71dqiS3L-46" value="price : int&lt;div&gt;date_start : datetime&lt;/div&gt;&lt;div&gt;date_end : datetime&lt;/div&gt;" style="text;strokeColor=none;fillColor=none;align=left;verticalAlign=top;spacingLeft=4;spacingRight=4;overflow=hidden;rotatable=0;points=[[0,0.5],[1,0.5]];portConstraint=eastwest;whiteSpace=wrap;html=1;" parent="yO5ZmVBm04dt71dqiS3L-43" vertex="1">
          <mxGeometry y="60" width="160" height="60" as="geometry" />
        </mxCell>
        <mxCell id="yO5ZmVBm04dt71dqiS3L-47" value="" style="edgeStyle=entityRelationEdgeStyle;fontSize=12;html=1;endArrow=ERoneToMany;startArrow=ERmandOne;rounded=0;entryX=0;entryY=0.5;entryDx=0;entryDy=0;exitX=1;exitY=0.343;exitDx=0;exitDy=0;exitPerimeter=0;" parent="1" source="yO5ZmVBm04dt71dqiS3L-30" target="yO5ZmVBm04dt71dqiS3L-44" edge="1">
          <mxGeometry width="100" height="100" relative="1" as="geometry">
            <mxPoint x="600" y="650" as="sourcePoint" />
            <mxPoint x="700" y="550" as="targetPoint" />
            <Array as="points">
              <mxPoint x="400" y="660" />
            </Array>
          </mxGeometry>
        </mxCell>
        <mxCell id="yO5ZmVBm04dt71dqiS3L-50" value="" style="edgeStyle=orthogonalEdgeStyle;fontSize=12;html=1;endArrow=ERoneToMany;startArrow=ERmandOne;rounded=0;entryX=0;entryY=0.5;entryDx=0;entryDy=0;exitX=0;exitY=0.5;exitDx=0;exitDy=0;curved=1;" parent="1" source="yO5ZmVBm04dt71dqiS3L-23" target="yO5ZmVBm04dt71dqiS3L-44" edge="1">
          <mxGeometry width="100" height="100" relative="1" as="geometry">
            <mxPoint x="320" y="474" as="sourcePoint" />
            <mxPoint x="700" y="459" as="targetPoint" />
            <Array as="points">
              <mxPoint x="70" y="280" />
              <mxPoint x="70" y="660" />
              <mxPoint x="640" y="660" />
              <mxPoint x="640" y="450" />
            </Array>
          </mxGeometry>
        </mxCell>
        <mxCell id="yO5ZmVBm04dt71dqiS3L-53" value="" style="edgeStyle=orthogonalEdgeStyle;fontSize=12;html=1;endArrow=ERoneToMany;startArrow=ERmandOne;rounded=0;exitX=1.013;exitY=0.3;exitDx=0;exitDy=0;exitPerimeter=0;curved=1;entryX=1;entryY=0.5;entryDx=0;entryDy=0;" parent="1" source="yO5ZmVBm04dt71dqiS3L-18" target="yO5ZmVBm04dt71dqiS3L-44" edge="1">
          <mxGeometry width="100" height="100" relative="1" as="geometry">
            <mxPoint x="320" y="474" as="sourcePoint" />
            <mxPoint x="690" y="450" as="targetPoint" />
            <Array as="points">
              <mxPoint x="1010" y="241" />
              <mxPoint x="1010" y="450" />
            </Array>
          </mxGeometry>
        </mxCell>
        <mxCell id="yO5ZmVBm04dt71dqiS3L-55" value="" style="edgeStyle=entityRelationEdgeStyle;fontSize=12;html=1;endArrow=ERoneToMany;startArrow=ERmandOne;rounded=0;exitX=0.988;exitY=0.343;exitDx=0;exitDy=0;exitPerimeter=0;" parent="1" source="yO5ZmVBm04dt71dqiS3L-8" edge="1">
          <mxGeometry width="100" height="100" relative="1" as="geometry">
            <mxPoint x="320" y="474" as="sourcePoint" />
            <mxPoint x="730" y="450" as="targetPoint" />
            <Array as="points">
              <mxPoint x="410" y="670" />
            </Array>
          </mxGeometry>
        </mxCell>
      </root>
    </mxGraphModel>
  </diagram>
</mxfile>
